{"accessors":[{"bufferView":0,"componentType":5126,"count":192,"max":[10.8349361419678,2.0,4.38397407531738],"min":[-8.16506385803223,0.5,-11.6160259246826],"normalized":false,"type":"VEC3"},{"bufferView":1,"componentType":5126,"count":192,"max":[1.0,0.0,0.0000763009302318096,-1.0],"min":[-1.0,-1.0,-1.0,-1.0],"normalized":false,"type":"VEC4"},{"bufferView":2,"componentType":5126,"count":192,"max":[1.0,1.0,1.0],"min":[-1.0,-1.0,-1.0],"normalized":false,"type":"VEC3"},{"bufferView":3,"componentType":5126,"count":192,"max":[1.0,1.0],"min":[0.0,0.0],"normalized":false,"type":"VEC2"},{"bufferView":4,"componentType":5123,"count":192,"max":[191.0],"min":[0.0],"normalized":false,"type":"SCALAR"},{"bufferView":5,"componentType":5126,"count":72,"max":[2.0,5.5,0.5],"min":[-2.0,0.5,-0.5],"normalized":false,"type":"VEC3"},{"bufferView":6,"componentType":5126,"count":72,"max":[0.0,0.0,0.0000763009302318096,1.0],"min":[-1.0,-1.0,-1.0,-1.0],"normalized":false,"type":"VEC4"},{"bufferView":7,"componentType":5126,"count":72,"max":[1.0,1.0,1.0],"min":[-1.0,-1.0,-1.0],"normalized":false,"type":"VEC3"},{"bufferView":8,"componentType":5126,"count":72,"max":[1.0,1.0],"min":[0.0,0.0],"normalized":false,"type":"VEC2"},{"bufferView":9,"componentType":5123,"count":72,"max":[71.0],"min":[0.0],"normalized":false,"type":"SCALAR"},{"bufferView":10,"componentType":5126,"count":180,"max":[10.75,0.5,7.0],"min":[-9.25,-0.5,-13.0],"normalized":false,"type":"VEC3"},{"bufferView":11,"componentType":5126,"count":180,"max":[0.0,0.0,0.0000763009302318096,-1.0],"min":[-1.0,-1.0,-1.0,-1.0],"normalized":false,"type":"VEC4"},{"bufferView":12,"componentType":5126,"count":180,"max":[1.0,1.0,1.0],"min":[-1.0,-1.0,-1.0],"normalized":false,"type":"VEC3"},{"bufferView":13,"componentType":5126,"count":180,"max":[1.0,1.0],"min":[0.0,0.0],"normalized":false,"type":"VEC2"},{"bufferView":14,"componentType":5123,"count":180,"max":[179.0],"min":[0.0],"normalized":false,"type":"SCALAR"}],"asset":{"generator":"Godot Engine v4.5.1.stable.official@f62fdbde15035c5576dad93e586201f4d41ef0cb","version":"2.0"},"bufferViews":[{"buffer":0,"byteLength":2304,"byteStride":12,"target":34962},{"buffer":0,"byteLength":3072,"byteOffset":2304,"byteStride":16,"target":34962},{"buffer":0,"byteLength":2304,"byteOffset":5376,"byteStride":12,"target":34962},{"buffer":0,"byteLength":1536,"byteOffset":7680,"byteStride":8,"target":34962},{"buffer":0,"byteLength":384,"byteOffset":9216,"target":34963},{"buffer":0,"byteLength":864,"byteOffset":9600,"byteStride":12,"target":34962},{"buffer":0,"byteLength":1152,"byteOffset":10464,"byteStride":16,"target":34962},{"buffer":0,"byteLength":864,"byteOffset":11616,"byteStride":12,"target":34962},{"buffer":0,"byteLength":576,"byteOffset":12480,"byteStride":8,"target":34962},{"buffer":0,"byteLength":144,"byteOffset":13056,"target":34963},{"buffer":0,"byteLength":2160,"byteOffset":13200,"byteStride":12,"target":34962},{"buffer":0,"byteLength":2880,"byteOffset":15360,"byteStride":16,"target":34962},{"buffer":0,"byteLength":2160,"byteOffset":18240,"byteStride":12,"target":34962},{"buffer":0,"byteLength":1440,"byteOffset":20400,"byteStride":8,"target":34962},{"buffer":0,"byteLength":360,"byteOffset":21840,"target":34963}],"buffers":[{"byteLength":22200,"uri":"level_000.bin"}],"extensionsUsed":["GODOT_single_root"],"materials":[{"extensions":{},"pbrMetallicRoughness":{"baseColorFactor":[1.0,1.0,1.0,1.0],"metallicFactor":0.0,"roughnessFactor":1.0}},{},{"extensions":{},"pbrMetallicRoughness":{"baseColorFactor":[0.0544802807271481,1.0,1.0,1.0],"metallicFactor":0.0,"roughnessFactor":1.0}}],"meshes":[{"primitives":[{"attributes":{"NORMAL":2,"POSITION":0,"TANGENT":1,"TEXCOORD_0":3},"indices":4,"material":0,"mode":4},{"attributes":{"NORMAL":7,"POSITION":5,"TANGENT":6,"TEXCOORD_0":8},"indices":9,"material":1,"mode":4},{"attributes":{"NORMAL":12,"POSITION":10,"TANGENT":11,"TEXCOORD_0":13},"indices":14,"material":2,"mode":4}]}],"nodes":[{"children":[1],"name":"Node3D"},{"mesh":0,"name":"CSGBakedMeshInstance3D"}],"scene":0,"scenes":[{"nodes":[0]}]}